<?xml version="1.0" encoding="UTF-8"?>
<!DOCTYPE svg PUBLIC "-//W3C//DTD SVG 1.1//EN" "http://www.w3.org/Graphics/SVG/1.1/DTD/svg11.dtd">
<!-- Creator: CorelDRAW -->
<svg xmlns="http://www.w3.org/2000/svg" xml:space="preserve" width="82mm" height="85mm" version="1.1" style="shape-rendering:geometricPrecision; text-rendering:geometricPrecision; image-rendering:optimizeQuality; fill-rule:evenodd; clip-rule:evenodd"
viewBox="0 0 8200 8500"
 xmlns:xlink="http://www.w3.org/1999/xlink"
 xmlns:xodm="http://www.corel.com/coreldraw/odm/2003">
 <defs>
  <style type="text/css">
   <![CDATA[
    .str0 {stroke:#441853;stroke-width:7.62;stroke-miterlimit:22.9256}
    .fil0 {fill:none}
    .fil1 {fill:#441853}
    .fil3 {fill:url(#id1)}
    .fil2 {fill:url(#id2)}
   ]]>
  </style>
   <clipPath id="id0">
    <path d="M3734.89 2344.93c728.96,-9.69 1322.66,-96.45 1707.3,553.94 165.36,279.57 117.19,721.05 41.99,893.71 -320.06,734.79 -834.16,684.06 -1689.44,679.22 -113.26,0.17 -97.59,31.85 -96.85,268.58 0.37,119.74 -7.01,443.6 -4.41,649.58 2.57,206.61 -23.12,173.11 175.28,172.3 1070.27,-4.36 1638.34,-115.68 2252.93,-744.18 730.48,-835.84 673.67,-2008.89 2.63,-2795.79 -831.17,-974.64 -1785.12,-741.35 -2941.68,-771.64 -80.74,-2.12 -82.65,-10.9 -22.97,43.4 330.53,300.85 470.8,478.96 518.97,1000.22 5.61,60.96 -5.78,51.46 56.25,50.67l0 -0.01z"/>
   </clipPath>
  <linearGradient id="id1" gradientUnits="userSpaceOnUse" x1="2797.92" y1="2877.73" x2="7983.66" y2="2877.73">
   <stop offset="0" style="stop-opacity:1; stop-color:#E8D6F0"/>
   <stop offset="0.639216" style="stop-opacity:1; stop-color:#AB82B8"/>
   <stop offset="1" style="stop-opacity:1; stop-color:#6D2D80"/>
  </linearGradient>
  <linearGradient id="id2" gradientUnits="userSpaceOnUse" x1="2823.16" y1="3399.44" x2="7142.5" y2="3399.44">
   <stop offset="0" style="stop-opacity:1; stop-color:#8837B0"/>
   <stop offset="0.129412" style="stop-opacity:1; stop-color:#8330AA"/>
   <stop offset="0.301961" style="stop-opacity:1; stop-color:#7D28A3"/>
   <stop offset="0.329412" style="stop-opacity:1; stop-color:#6B2489"/>
   <stop offset="0.521569" style="stop-opacity:1; stop-color:#59206E"/>
   <stop offset="1" style="stop-opacity:1; stop-color:#481552"/>
  </linearGradient>
 </defs>
 <g id="Camada_x0020_1">
  <metadata id="CorelCorpID_0Corel-Layer"/>
  <rect class="fil0" x="0.01" y="-43.21" width="8199.99" height="8586.39"/>
  <path class="fil1" d="M1758.82 7217.91c284.87,10.55 1042.4,10.62 1287.83,-0.12 89.4,-3.9 74.75,7.85 77.92,-83.19 18.66,-529.38 2.2,-3379.85 2.17,-3624.92 -0.02,-309.94 1.28,-620.32 -1.03,-930.2 -2.32,-309.91 -37.8,-519.79 -180.14,-750.79 -52.38,-84.98 -135.42,-187.45 -208.57,-250.46 -86.97,-74.91 -152.17,-134.05 -276.39,-193.19 -198.08,-94.32 -543.07,-165.19 -804.21,-117.54l-3.82 5841.98c-0.09,122.69 -21.37,103.71 106.25,108.44l-0.01 -0.01z"/>
  <path class="fil1" d="M3734.89 2344.93c728.96,-9.69 1322.66,-96.45 1707.3,553.94 165.36,279.57 117.19,721.05 41.99,893.71 -320.06,734.79 -834.16,684.06 -1689.44,679.22 -113.26,0.17 -97.59,31.85 -96.85,268.58 0.37,119.74 -7.01,443.6 -4.41,649.58 2.57,206.61 -23.12,173.11 175.28,172.3 1070.27,-4.36 1638.34,-115.68 2252.93,-744.18 730.48,-835.84 673.67,-2008.89 2.63,-2795.79 -831.17,-974.64 -1785.12,-741.35 -2941.68,-771.64 -80.74,-2.12 -82.65,-10.9 -22.97,43.4 330.53,300.85 470.8,478.96 518.97,1000.22 5.61,60.96 -5.78,51.46 56.25,50.67l0 -0.01z"/>
  <g>
  </g>
  <g style="clip-path:url(#id0)">
   <g id="_50105606976">
    <path id="_1" class="fil2" d="M3483.6 2454.01l-536.21 -1394.18 3692.26 160.86 -157.36 470.72c341.59,667.84 661.25,1792.25 661.25,1792.25l-380.32 1465.8 -932.81 630.8 -1384.81 206.22 -1621.76 -224.17c0,0 1987.53,270.52 2661.11,-1816.67l-193.51 -43 -390.68 -965.21 -1417.15 -283.43 -0.01 0.01z"/>
    <path class="fil3" d="M3330.99 1163.13c1383.87,701.21 2255.22,1223.7 2881.37,3587.43l1771.57 223.51 -649.7 -4192.46 -4535.68 24.53 532.44 356.99z"/>
   </g>
  </g>
  <path class="fil0" d="M3734.89 2344.93c728.96,-9.69 1322.66,-96.45 1707.3,553.94 165.36,279.57 117.19,721.05 41.99,893.71 -320.06,734.79 -834.16,684.06 -1689.44,679.22 -113.26,0.17 -97.59,31.85 -96.85,268.58 0.37,119.74 -7.01,443.6 -4.41,649.58 2.57,206.61 -23.12,173.11 175.28,172.3 1070.27,-4.36 1638.34,-115.68 2252.93,-744.18 730.48,-835.84 673.67,-2008.89 2.63,-2795.79 -831.17,-974.64 -1785.12,-741.35 -2941.68,-771.64 -80.74,-2.12 -82.65,-10.9 -22.97,43.4 330.53,300.85 470.8,478.96 518.97,1000.22 5.61,60.96 -5.78,51.46 56.25,50.67l0 -0.01z"/>
  <path class="fil0" d="M3734.89 2344.93c728.96,-9.69 1322.66,-96.45 1707.3,553.94 165.36,279.57 117.19,721.05 41.99,893.71 -320.06,734.79 -834.16,684.06 -1689.44,679.22 -113.26,0.17 -97.59,31.85 -96.85,268.58 0.37,119.74 -7.01,443.6 -4.41,649.58 2.57,206.61 -23.12,173.11 175.28,172.3 1070.27,-4.36 1638.34,-115.68 2252.93,-744.18 730.48,-835.84 673.67,-2008.89 2.63,-2795.79 -831.17,-974.64 -1785.12,-741.35 -2941.68,-771.64 -80.74,-2.12 -82.65,-10.9 -22.97,43.4 330.53,300.85 470.8,478.96 518.97,1000.22 5.61,60.96 -5.78,51.46 56.25,50.67l0 -0.01z"/>
  <path class="fil1 str0" d="M4813.17 3235.41l1.03 -178.57c-1.3,-61.63 0.3,-58.18 -50.22,-58.79 -230.44,-2.77 -738.43,-2.87 -967.42,-1.3 -35.29,0.24 -32.13,0.47 -31.3,37.05 2.21,63.61 -1.24,155.21 0.98,218.82 1.96,48.56 -11.35,40.02 49.96,41.99 309.96,-0.39 632.6,-0.6 942.56,-0.99 56.27,-1.04 55.88,1.48 54.41,-58.21z"/>
  <path class="fil1" d="M4813.17 3759.39l1.03 -178.58c-1.3,-61.61 0.3,-58.18 -50.22,-58.78 -230.44,-2.78 -738.43,-2.88 -967.42,-1.31 -35.29,0.24 -32.13,0.48 -31.3,37.05 2.21,63.61 -1.24,155.21 0.98,218.82 1.96,48.56 -11.35,40.03 49.96,41.99 309.96,-0.39 632.6,-0.59 942.56,-0.98 56.27,-1.05 55.88,1.47 54.41,-58.21z"/>
 </g>
</svg>
