<?xml version="1.0" encoding="UTF-8"?>
<!DOCTYPE svg PUBLIC "-//W3C//DTD SVG 1.1//EN" "http://www.w3.org/Graphics/SVG/1.1/DTD/svg11.dtd">
<!-- Creator: CorelDRAW -->
<svg xmlns="http://www.w3.org/2000/svg" xml:space="preserve" width="60mm" height="60mm" version="1.1" style="shape-rendering:geometricPrecision; text-rendering:geometricPrecision; image-rendering:optimizeQuality; fill-rule:evenodd; clip-rule:evenodd"
viewBox="0 0 6000 6000"
 xmlns:xlink="http://www.w3.org/1999/xlink"
 xmlns:xodm="http://www.corel.com/coreldraw/odm/2003">
 <defs>
  <style type="text/css">
   <![CDATA[
    .fil1 {fill:white}
    .fil0 {fill:#441751}
   ]]>
  </style>
 </defs>
 <g id="Camada_x0020_1">
  <metadata id="CorelCorpID_0Corel-Layer"/>
  <rect class="fil0" x="-97.92" y="-142.4" width="6163.58" height="6163.58"/>
  <path class="fil1" d="M943.68 483.49l0 4957.75 1187.12 0c0,-1358.41 0,-2716.83 0,-4075.24 0,-18.11 -80.85,-874.89 -1187.12,-882.51zm3865.35 2680.54c73.61,-85.1 447.78,-1009.7 -5.27,-1799.43 -676.72,-1077.32 -1867.65,-896.73 -2702.03,-892.52 373.3,310.49 449.11,386.2 545.21,890.82 302.15,9.14 803.42,6.66 1026.55,100.37 272,114.23 490.72,367.49 486.66,815.65 3.73,435.33 -231.54,707.33 -496.12,798.96 -265.98,92.12 -663.51,66.53 -1013.66,88.25 0,300.93 0,601.88 0,902.82 752.07,-27.76 1476.66,177.34 2158.66,-904.92zm-2102.85 -1217.61l847.72 0 0 202.99 -847.72 0 0 -202.99zm0.15 469.99l847.72 0 0 203 -847.72 0 0 -203z"/>
 </g>
</svg>
